<svg class="rich-terminal" viewBox="0 0 1568 757.5999999999999" xmlns="http://www.w3.org/2000/svg">
    <!-- Generated with Rich https://www.textualize.io -->
    <style>

    @font-face {
        font-family: "Fira Code";
        src: local("FiraCode-Regular"),
                url("https://cdnjs.cloudflare.com/ajax/libs/firacode/6.2.0/woff2/FiraCode-Regular.woff2") format("woff2"),
                url("https://cdnjs.cloudflare.com/ajax/libs/firacode/6.2.0/woff/FiraCode-Regular.woff") format("woff");
        font-style: normal;
        font-weight: 400;
    }
    @font-face {
        font-family: "Fira Code";
        src: local("FiraCode-Bold"),
                url("https://cdnjs.cloudflare.com/ajax/libs/firacode/6.2.0/woff2/FiraCode-Bold.woff2") format("woff2"),
                url("https://cdnjs.cloudflare.com/ajax/libs/firacode/6.2.0/woff/FiraCode-Bold.woff") format("woff");
        font-style: bold;
        font-weight: 700;
    }

    .terminal-1912903753-matrix {
        font-family: Fira Code, monospace;
        font-size: 20px;
        line-height: 24.4px;
        font-variant-east-asian: full-width;
    }

    .terminal-1912903753-title {
        font-size: 18px;
        font-weight: bold;
        font-family: arial;
    }

    .terminal-1912903753-r1 { fill: #c5c8c6 }
.terminal-1912903753-r2 { fill: #e2e3e3 }
.terminal-1912903753-r3 { fill: #c7c9ca }
.terminal-1912903753-r4 { fill: #e2e3e3;font-weight: bold }
.terminal-1912903753-r5 { fill: #777a7e }
.terminal-1912903753-r6 { fill: #4c5055 }
.terminal-1912903753-r7 { fill: #0178d4 }
.terminal-1912903753-r8 { fill: #e0e0e0 }
.terminal-1912903753-r9 { fill: #68a0b3;font-weight: bold }
.terminal-1912903753-r10 { fill: #00823d;font-weight: bold }
.terminal-1912903753-r11 { fill: #e0e0e0;font-weight: bold }
.terminal-1912903753-r12 { fill: #ff2627;font-weight: bold;font-style: italic; }
.terminal-1912903753-r13 { fill: #565c62 }
.terminal-1912903753-r14 { fill: #00823d;font-weight: bold;font-style: italic; }
.terminal-1912903753-r15 { fill: #333b42 }
.terminal-1912903753-r16 { fill: #dde6ed;font-weight: bold }
.terminal-1912903753-r17 { fill: #dee5ea }
    </style>

    <defs>
    <clipPath id="terminal-1912903753-clip-terminal">
      <rect x="0" y="0" width="1548.3999999999999" height="706.5999999999999" />
    </clipPath>
    <clipPath id="terminal-1912903753-line-0">
    <rect x="0" y="1.5" width="1549.4" height="24.65"/>
            </clipPath>
<clipPath id="terminal-1912903753-line-1">
    <rect x="0" y="25.9" width="1549.4" height="24.65"/>
            </clipPath>
<clipPath id="terminal-1912903753-line-2">
    <rect x="0" y="50.3" width="1549.4" height="24.65"/>
            </clipPath>
<clipPath id="terminal-1912903753-line-3">
    <rect x="0" y="74.7" width="1549.4" height="24.65"/>
            </clipPath>
<clipPath id="terminal-1912903753-line-4">
    <rect x="0" y="99.1" width="1549.4" height="24.65"/>
            </clipPath>
<clipPath id="terminal-1912903753-line-5">
    <rect x="0" y="123.5" width="1549.4" height="24.65"/>
            </clipPath>
<clipPath id="terminal-1912903753-line-6">
    <rect x="0" y="147.9" width="1549.4" height="24.65"/>
            </clipPath>
<clipPath id="terminal-1912903753-line-7">
    <rect x="0" y="172.3" width="1549.4" height="24.65"/>
            </clipPath>
<clipPath id="terminal-1912903753-line-8">
    <rect x="0" y="196.7" width="1549.4" height="24.65"/>
            </clipPath>
<clipPath id="terminal-1912903753-line-9">
    <rect x="0" y="221.1" width="1549.4" height="24.65"/>
            </clipPath>
<clipPath id="terminal-1912903753-line-10">
    <rect x="0" y="245.5" width="1549.4" height="24.65"/>
            </clipPath>
<clipPath id="terminal-1912903753-line-11">
    <rect x="0" y="269.9" width="1549.4" height="24.65"/>
            </clipPath>
<clipPath id="terminal-1912903753-line-12">
    <rect x="0" y="294.3" width="1549.4" height="24.65"/>
            </clipPath>
<clipPath id="terminal-1912903753-line-13">
    <rect x="0" y="318.7" width="1549.4" height="24.65"/>
            </clipPath>
<clipPath id="terminal-1912903753-line-14">
    <rect x="0" y="343.1" width="1549.4" height="24.65"/>
            </clipPath>
<clipPath id="terminal-1912903753-line-15">
    <rect x="0" y="367.5" width="1549.4" height="24.65"/>
            </clipPath>
<clipPath id="terminal-1912903753-line-16">
    <rect x="0" y="391.9" width="1549.4" height="24.65"/>
            </clipPath>
<clipPath id="terminal-1912903753-line-17">
    <rect x="0" y="416.3" width="1549.4" height="24.65"/>
            </clipPath>
<clipPath id="terminal-1912903753-line-18">
    <rect x="0" y="440.7" width="1549.4" height="24.65"/>
            </clipPath>
<clipPath id="terminal-1912903753-line-19">
    <rect x="0" y="465.1" width="1549.4" height="24.65"/>
            </clipPath>
<clipPath id="terminal-1912903753-line-20">
    <rect x="0" y="489.5" width="1549.4" height="24.65"/>
            </clipPath>
<clipPath id="terminal-1912903753-line-21">
    <rect x="0" y="513.9" width="1549.4" height="24.65"/>
            </clipPath>
<clipPath id="terminal-1912903753-line-22">
    <rect x="0" y="538.3" width="1549.4" height="24.65"/>
            </clipPath>
<clipPath id="terminal-1912903753-line-23">
    <rect x="0" y="562.7" width="1549.4" height="24.65"/>
            </clipPath>
<clipPath id="terminal-1912903753-line-24">
    <rect x="0" y="587.1" width="1549.4" height="24.65"/>
            </clipPath>
<clipPath id="terminal-1912903753-line-25">
    <rect x="0" y="611.5" width="1549.4" height="24.65"/>
            </clipPath>
<clipPath id="terminal-1912903753-line-26">
    <rect x="0" y="635.9" width="1549.4" height="24.65"/>
            </clipPath>
<clipPath id="terminal-1912903753-line-27">
    <rect x="0" y="660.3" width="1549.4" height="24.65"/>
            </clipPath>
    </defs>

    <rect fill="#292929" stroke="rgba(255,255,255,0.35)" stroke-width="1" x="1" y="1" width="1566" height="755.6" rx="8"/><text class="terminal-1912903753-title" fill="#c5c8c6" text-anchor="middle" x="783" y="27">Textual&#160;Application</text>
            <g transform="translate(26,22)">
            <circle cx="0" cy="0" r="7" fill="#ff5f57"/>
            <circle cx="22" cy="0" r="7" fill="#febc2e"/>
            <circle cx="44" cy="0" r="7" fill="#28c840"/>
            </g>
        
    <g transform="translate(9, 41)" clip-path="url(#terminal-1912903753-clip-terminal)">
    <rect fill="#24292f" x="0" y="1.5" width="12.2" height="24.65" shape-rendering="crispEdges"/><rect fill="#24292f" x="12.2" y="1.5" width="12.2" height="24.65" shape-rendering="crispEdges"/><rect fill="#24292f" x="24.4" y="1.5" width="61" height="24.65" shape-rendering="crispEdges"/><rect fill="#24292f" x="85.4" y="1.5" width="12.2" height="24.65" shape-rendering="crispEdges"/><rect fill="#24292f" x="97.6" y="1.5" width="549" height="24.65" shape-rendering="crispEdges"/><rect fill="#24292f" x="646.6" y="1.5" width="231.8" height="24.65" shape-rendering="crispEdges"/><rect fill="#24292f" x="878.4" y="1.5" width="549" height="24.65" shape-rendering="crispEdges"/><rect fill="#2c3137" x="1427.4" y="1.5" width="12.2" height="24.65" shape-rendering="crispEdges"/><rect fill="#2c3137" x="1439.6" y="1.5" width="0" height="24.65" shape-rendering="crispEdges"/><rect fill="#2c3137" x="1439.6" y="1.5" width="97.6" height="24.65" shape-rendering="crispEdges"/><rect fill="#2c3137" x="1537.2" y="1.5" width="12.2" height="24.65" shape-rendering="crispEdges"/><rect fill="#24292f" x="0" y="25.9" width="85.4" height="24.65" shape-rendering="crispEdges"/><rect fill="#24292f" x="85.4" y="25.9" width="97.6" height="24.65" shape-rendering="crispEdges"/><rect fill="#24292f" x="183" y="25.9" width="1366.4" height="24.65" shape-rendering="crispEdges"/><rect fill="#24292f" x="0" y="50.3" width="24.4" height="24.65" shape-rendering="crispEdges"/><rect fill="#24292f" x="24.4" y="50.3" width="48.8" height="24.65" shape-rendering="crispEdges"/><rect fill="#24292f" x="73.2" y="50.3" width="12.2" height="24.65" shape-rendering="crispEdges"/><rect fill="#24292f" x="85.4" y="50.3" width="24.4" height="24.65" shape-rendering="crispEdges"/><rect fill="#24292f" x="109.8" y="50.3" width="61" height="24.65" shape-rendering="crispEdges"/><rect fill="#24292f" x="170.8" y="50.3" width="12.2" height="24.65" shape-rendering="crispEdges"/><rect fill="#24292f" x="183" y="50.3" width="1366.4" height="24.65" shape-rendering="crispEdges"/><rect fill="#24292f" x="0" y="74.7" width="12.2" height="24.65" shape-rendering="crispEdges"/><rect fill="#24292f" x="12.2" y="74.7" width="12.2" height="24.65" shape-rendering="crispEdges"/><rect fill="#24292f" x="24.4" y="74.7" width="48.8" height="24.65" shape-rendering="crispEdges"/><rect fill="#24292f" x="73.2" y="74.7" width="12.2" height="24.65" shape-rendering="crispEdges"/><rect fill="#24292f" x="85.4" y="74.7" width="1464" height="24.65" shape-rendering="crispEdges"/><rect fill="#24292f" x="0" y="99.1" width="12.2" height="24.65" shape-rendering="crispEdges"/><rect fill="#121212" x="12.2" y="99.1" width="48.8" height="24.65" shape-rendering="crispEdges"/><rect fill="#121212" x="61" y="99.1" width="24.4" height="24.65" shape-rendering="crispEdges"/><rect fill="#121212" x="85.4" y="99.1" width="12.2" height="24.65" shape-rendering="crispEdges"/><rect fill="#121212" x="97.6" y="99.1" width="97.6" height="24.65" shape-rendering="crispEdges"/><rect fill="#121212" x="195.2" y="99.1" width="24.4" height="24.65" shape-rendering="crispEdges"/><rect fill="#121212" x="219.6" y="99.1" width="134.2" height="24.65" shape-rendering="crispEdges"/><rect fill="#121212" x="353.8" y="99.1" width="61" height="24.65" shape-rendering="crispEdges"/><rect fill="#121212" x="414.8" y="99.1" width="1098" height="24.65" shape-rendering="crispEdges"/><rect fill="#121212" x="1512.8" y="99.1" width="24.4" height="24.65" shape-rendering="crispEdges"/><rect fill="#24292f" x="1537.2" y="99.1" width="12.2" height="24.65" shape-rendering="crispEdges"/><rect fill="#24292f" x="0" y="123.5" width="12.2" height="24.65" shape-rendering="crispEdges"/><rect fill="#121212" x="12.2" y="123.5" width="48.8" height="24.65" shape-rendering="crispEdges"/><rect fill="#121212" x="61" y="123.5" width="24.4" height="24.65" shape-rendering="crispEdges"/><rect fill="#121212" x="85.4" y="123.5" width="12.2" height="24.65" shape-rendering="crispEdges"/><rect fill="#121212" x="97.6" y="123.5" width="97.6" height="24.65" shape-rendering="crispEdges"/><rect fill="#121212" x="195.2" y="123.5" width="24.4" height="24.65" shape-rendering="crispEdges"/><rect fill="#121212" x="219.6" y="123.5" width="134.2" height="24.65" shape-rendering="crispEdges"/><rect fill="#121212" x="353.8" y="123.5" width="48.8" height="24.65" shape-rendering="crispEdges"/><rect fill="#121212" x="402.6" y="123.5" width="1110.2" height="24.65" shape-rendering="crispEdges"/><rect fill="#14191f" x="1512.8" y="123.5" width="24.4" height="24.65" shape-rendering="crispEdges"/><rect fill="#24292f" x="1537.2" y="123.5" width="12.2" height="24.65" shape-rendering="crispEdges"/><rect fill="#24292f" x="0" y="147.9" width="12.2" height="24.65" shape-rendering="crispEdges"/><rect fill="#121212" x="12.2" y="147.9" width="1500.6" height="24.65" shape-rendering="crispEdges"/><rect fill="#14191f" x="1512.8" y="147.9" width="24.4" height="24.65" shape-rendering="crispEdges"/><rect fill="#24292f" x="1537.2" y="147.9" width="12.2" height="24.65" shape-rendering="crispEdges"/><rect fill="#24292f" x="0" y="172.3" width="12.2" height="24.65" shape-rendering="crispEdges"/><rect fill="#121212" x="12.2" y="172.3" width="1500.6" height="24.65" shape-rendering="crispEdges"/><rect fill="#14191f" x="1512.8" y="172.3" width="24.4" height="24.65" shape-rendering="crispEdges"/><rect fill="#24292f" x="1537.2" y="172.3" width="12.2" height="24.65" shape-rendering="crispEdges"/><rect fill="#24292f" x="0" y="196.7" width="12.2" height="24.65" shape-rendering="crispEdges"/><rect fill="#121212" x="12.2" y="196.7" width="1500.6" height="24.65" shape-rendering="crispEdges"/><rect fill="#14191f" x="1512.8" y="196.7" width="24.4" height="24.65" shape-rendering="crispEdges"/><rect fill="#24292f" x="1537.2" y="196.7" width="12.2" height="24.65" shape-rendering="crispEdges"/><rect fill="#24292f" x="0" y="221.1" width="12.2" height="24.65" shape-rendering="crispEdges"/><rect fill="#121212" x="12.2" y="221.1" width="1500.6" height="24.65" shape-rendering="crispEdges"/><rect fill="#14191f" x="1512.8" y="221.1" width="24.4" height="24.65" shape-rendering="crispEdges"/><rect fill="#24292f" x="1537.2" y="221.1" width="12.2" height="24.65" shape-rendering="crispEdges"/><rect fill="#24292f" x="0" y="245.5" width="12.2" height="24.65" shape-rendering="crispEdges"/><rect fill="#121212" x="12.2" y="245.5" width="1500.6" height="24.65" shape-rendering="crispEdges"/><rect fill="#14191f" x="1512.8" y="245.5" width="24.4" height="24.65" shape-rendering="crispEdges"/><rect fill="#24292f" x="1537.2" y="245.5" width="12.2" height="24.65" shape-rendering="crispEdges"/><rect fill="#24292f" x="0" y="269.9" width="12.2" height="24.65" shape-rendering="crispEdges"/><rect fill="#121212" x="12.2" y="269.9" width="1500.6" height="24.65" shape-rendering="crispEdges"/><rect fill="#14191f" x="1512.8" y="269.9" width="24.4" height="24.65" shape-rendering="crispEdges"/><rect fill="#24292f" x="1537.2" y="269.9" width="12.2" height="24.65" shape-rendering="crispEdges"/><rect fill="#24292f" x="0" y="294.3" width="12.2" height="24.65" shape-rendering="crispEdges"/><rect fill="#121212" x="12.2" y="294.3" width="1500.6" height="24.65" shape-rendering="crispEdges"/><rect fill="#14191f" x="1512.8" y="294.3" width="24.4" height="24.65" shape-rendering="crispEdges"/><rect fill="#24292f" x="1537.2" y="294.3" width="12.2" height="24.65" shape-rendering="crispEdges"/><rect fill="#24292f" x="0" y="318.7" width="12.2" height="24.65" shape-rendering="crispEdges"/><rect fill="#121212" x="12.2" y="318.7" width="1500.6" height="24.65" shape-rendering="crispEdges"/><rect fill="#14191f" x="1512.8" y="318.7" width="24.4" height="24.65" shape-rendering="crispEdges"/><rect fill="#24292f" x="1537.2" y="318.7" width="12.2" height="24.65" shape-rendering="crispEdges"/><rect fill="#24292f" x="0" y="343.1" width="12.2" height="24.65" shape-rendering="crispEdges"/><rect fill="#121212" x="12.2" y="343.1" width="1500.6" height="24.65" shape-rendering="crispEdges"/><rect fill="#14191f" x="1512.8" y="343.1" width="24.4" height="24.65" shape-rendering="crispEdges"/><rect fill="#24292f" x="1537.2" y="343.1" width="12.2" height="24.65" shape-rendering="crispEdges"/><rect fill="#24292f" x="0" y="367.5" width="12.2" height="24.65" shape-rendering="crispEdges"/><rect fill="#121212" x="12.2" y="367.5" width="1500.6" height="24.65" shape-rendering="crispEdges"/><rect fill="#14191f" x="1512.8" y="367.5" width="24.4" height="24.65" shape-rendering="crispEdges"/><rect fill="#24292f" x="1537.2" y="367.5" width="12.2" height="24.65" shape-rendering="crispEdges"/><rect fill="#24292f" x="0" y="391.9" width="12.2" height="24.65" shape-rendering="crispEdges"/><rect fill="#121212" x="12.2" y="391.9" width="1500.6" height="24.65" shape-rendering="crispEdges"/><rect fill="#14191f" x="1512.8" y="391.9" width="24.4" height="24.65" shape-rendering="crispEdges"/><rect fill="#24292f" x="1537.2" y="391.9" width="12.2" height="24.65" shape-rendering="crispEdges"/><rect fill="#24292f" x="0" y="416.3" width="12.2" height="24.65" shape-rendering="crispEdges"/><rect fill="#121212" x="12.2" y="416.3" width="1500.6" height="24.65" shape-rendering="crispEdges"/><rect fill="#14191f" x="1512.8" y="416.3" width="24.4" height="24.65" shape-rendering="crispEdges"/><rect fill="#24292f" x="1537.2" y="416.3" width="12.2" height="24.65" shape-rendering="crispEdges"/><rect fill="#24292f" x="0" y="440.7" width="12.2" height="24.65" shape-rendering="crispEdges"/><rect fill="#121212" x="12.2" y="440.7" width="1500.6" height="24.65" shape-rendering="crispEdges"/><rect fill="#14191f" x="1512.8" y="440.7" width="24.4" height="24.65" shape-rendering="crispEdges"/><rect fill="#24292f" x="1537.2" y="440.7" width="12.2" height="24.65" shape-rendering="crispEdges"/><rect fill="#24292f" x="0" y="465.1" width="12.2" height="24.65" shape-rendering="crispEdges"/><rect fill="#121212" x="12.2" y="465.1" width="1500.6" height="24.65" shape-rendering="crispEdges"/><rect fill="#14191f" x="1512.8" y="465.1" width="24.4" height="24.65" shape-rendering="crispEdges"/><rect fill="#24292f" x="1537.2" y="465.1" width="12.2" height="24.65" shape-rendering="crispEdges"/><rect fill="#24292f" x="0" y="489.5" width="12.2" height="24.65" shape-rendering="crispEdges"/><rect fill="#121212" x="12.2" y="489.5" width="1500.6" height="24.65" shape-rendering="crispEdges"/><rect fill="#14191f" x="1512.8" y="489.5" width="24.4" height="24.65" shape-rendering="crispEdges"/><rect fill="#24292f" x="1537.2" y="489.5" width="12.2" height="24.65" shape-rendering="crispEdges"/><rect fill="#24292f" x="0" y="513.9" width="12.2" height="24.65" shape-rendering="crispEdges"/><rect fill="#121212" x="12.2" y="513.9" width="1500.6" height="24.65" shape-rendering="crispEdges"/><rect fill="#14191f" x="1512.8" y="513.9" width="24.4" height="24.65" shape-rendering="crispEdges"/><rect fill="#24292f" x="1537.2" y="513.9" width="12.2" height="24.65" shape-rendering="crispEdges"/><rect fill="#24292f" x="0" y="538.3" width="12.2" height="24.65" shape-rendering="crispEdges"/><rect fill="#121212" x="12.2" y="538.3" width="1500.6" height="24.65" shape-rendering="crispEdges"/><rect fill="#14191f" x="1512.8" y="538.3" width="24.4" height="24.65" shape-rendering="crispEdges"/><rect fill="#24292f" x="1537.2" y="538.3" width="12.2" height="24.65" shape-rendering="crispEdges"/><rect fill="#24292f" x="0" y="562.7" width="12.2" height="24.65" shape-rendering="crispEdges"/><rect fill="#121212" x="12.2" y="562.7" width="1500.6" height="24.65" shape-rendering="crispEdges"/><rect fill="#14191f" x="1512.8" y="562.7" width="24.4" height="24.65" shape-rendering="crispEdges"/><rect fill="#24292f" x="1537.2" y="562.7" width="12.2" height="24.65" shape-rendering="crispEdges"/><rect fill="#24292f" x="0" y="587.1" width="12.2" height="24.65" shape-rendering="crispEdges"/><rect fill="#121212" x="12.2" y="587.1" width="36.6" height="24.65" shape-rendering="crispEdges"/><rect fill="#24292f" x="48.8" y="587.1" width="231.8" height="24.65" shape-rendering="crispEdges"/><rect fill="#121212" x="280.6" y="587.1" width="1232.2" height="24.65" shape-rendering="crispEdges"/><rect fill="#14191f" x="1512.8" y="587.1" width="24.4" height="24.65" shape-rendering="crispEdges"/><rect fill="#24292f" x="1537.2" y="587.1" width="12.2" height="24.65" shape-rendering="crispEdges"/><rect fill="#24292f" x="0" y="611.5" width="12.2" height="24.65" shape-rendering="crispEdges"/><rect fill="#121212" x="12.2" y="611.5" width="36.6" height="24.65" shape-rendering="crispEdges"/><rect fill="#24292f" x="48.8" y="611.5" width="24.4" height="24.65" shape-rendering="crispEdges"/><rect fill="#24292f" x="73.2" y="611.5" width="183" height="24.65" shape-rendering="crispEdges"/><rect fill="#24292f" x="256.2" y="611.5" width="24.4" height="24.65" shape-rendering="crispEdges"/><rect fill="#121212" x="280.6" y="611.5" width="1232.2" height="24.65" shape-rendering="crispEdges"/><rect fill="#14191f" x="1512.8" y="611.5" width="24.4" height="24.65" shape-rendering="crispEdges"/><rect fill="#24292f" x="1537.2" y="611.5" width="12.2" height="24.65" shape-rendering="crispEdges"/><rect fill="#24292f" x="0" y="635.9" width="12.2" height="24.65" shape-rendering="crispEdges"/><rect fill="#121212" x="12.2" y="635.9" width="36.6" height="24.65" shape-rendering="crispEdges"/><rect fill="#24292f" x="48.8" y="635.9" width="231.8" height="24.65" shape-rendering="crispEdges"/><rect fill="#121212" x="280.6" y="635.9" width="1232.2" height="24.65" shape-rendering="crispEdges"/><rect fill="#121212" x="1512.8" y="635.9" width="24.4" height="24.65" shape-rendering="crispEdges"/><rect fill="#24292f" x="1537.2" y="635.9" width="12.2" height="24.65" shape-rendering="crispEdges"/><rect fill="#24292f" x="0" y="660.3" width="1549.4" height="24.65" shape-rendering="crispEdges"/><rect fill="#004578" x="0" y="684.7" width="36.6" height="24.65" shape-rendering="crispEdges"/><rect fill="#073b61" x="36.6" y="684.7" width="207.4" height="24.65" shape-rendering="crispEdges"/><rect fill="#004578" x="244" y="684.7" width="36.6" height="24.65" shape-rendering="crispEdges"/><rect fill="#073b61" x="280.6" y="684.7" width="146.4" height="24.65" shape-rendering="crispEdges"/><rect fill="#004578" x="427" y="684.7" width="36.6" height="24.65" shape-rendering="crispEdges"/><rect fill="#073b61" x="463.6" y="684.7" width="73.2" height="24.65" shape-rendering="crispEdges"/><rect fill="#073b61" x="536.8" y="684.7" width="1012.6" height="24.65" shape-rendering="crispEdges"/>
    <g class="terminal-1912903753-matrix">
    <text class="terminal-1912903753-r2" x="12.2" y="20" textLength="12.2" clip-path="url(#terminal-1912903753-line-0)">⭘</text><text class="terminal-1912903753-r2" x="646.6" y="20" textLength="231.8" clip-path="url(#terminal-1912903753-line-0)">Textual&#160;Application</text><text class="terminal-1912903753-r3" x="1439.6" y="20" textLength="97.6" clip-path="url(#terminal-1912903753-line-0)">19:42:39</text><text class="terminal-1912903753-r1" x="1549.4" y="20" textLength="12.2" clip-path="url(#terminal-1912903753-line-0)">
</text><text class="terminal-1912903753-r1" x="1549.4" y="44.4" textLength="12.2" clip-path="url(#terminal-1912903753-line-1)">
</text><text class="terminal-1912903753-r4" x="24.4" y="68.8" textLength="48.8" clip-path="url(#terminal-1912903753-line-2)">Main</text><text class="terminal-1912903753-r5" x="109.8" y="68.8" textLength="61" clip-path="url(#terminal-1912903753-line-2)">About</text><text class="terminal-1912903753-r1" x="1549.4" y="68.8" textLength="12.2" clip-path="url(#terminal-1912903753-line-2)">
</text><text class="terminal-1912903753-r6" x="0" y="93.2" textLength="12.2" clip-path="url(#terminal-1912903753-line-3)">━</text><text class="terminal-1912903753-r6" x="12.2" y="93.2" textLength="12.2" clip-path="url(#terminal-1912903753-line-3)">╸</text><text class="terminal-1912903753-r7" x="24.4" y="93.2" textLength="48.8" clip-path="url(#terminal-1912903753-line-3)">━━━━</text><text class="terminal-1912903753-r6" x="73.2" y="93.2" textLength="12.2" clip-path="url(#terminal-1912903753-line-3)">╺</text><text class="terminal-1912903753-r6" x="85.4" y="93.2" textLength="1464" clip-path="url(#terminal-1912903753-line-3)">━━━━━━━━━━━━━━━━━━━━━━━━━━━━━━━━━━━━━━━━━━━━━━━━━━━━━━━━━━━━━━━━━━━━━━━━━━━━━━━━━━━━━━━━━━━━━━━━━━━━━━━━━━━━━━━━━━━━━━━━</text><text class="terminal-1912903753-r1" x="1549.4" y="93.2" textLength="12.2" clip-path="url(#terminal-1912903753-line-3)">
</text><text class="terminal-1912903753-r8" x="12.2" y="117.6" textLength="48.8" clip-path="url(#terminal-1912903753-line-4)">Jun&#160;</text><text class="terminal-1912903753-r9" x="61" y="117.6" textLength="24.4" clip-path="url(#terminal-1912903753-line-4)">29</text><text class="terminal-1912903753-r10" x="97.6" y="117.6" textLength="97.6" clip-path="url(#terminal-1912903753-line-4)">19:42:36</text><text class="terminal-1912903753-r8" x="195.2" y="117.6" textLength="24.4" clip-path="url(#terminal-1912903753-line-4)">:&#160;</text><text class="terminal-1912903753-r11" x="219.6" y="117.6" textLength="134.2" clip-path="url(#terminal-1912903753-line-4)">Dark&#160;mode:&#160;</text><text class="terminal-1912903753-r12" x="353.8" y="117.6" textLength="61" clip-path="url(#terminal-1912903753-line-4)">False</text><text class="terminal-1912903753-r13" x="1512.8" y="117.6" textLength="24.4" clip-path="url(#terminal-1912903753-line-4)">▄▄</text><text class="terminal-1912903753-r1" x="1549.4" y="117.6" textLength="12.2" clip-path="url(#terminal-1912903753-line-4)">
</text><text class="terminal-1912903753-r8" x="12.2" y="142" textLength="48.8" clip-path="url(#terminal-1912903753-line-5)">Jun&#160;</text><text class="terminal-1912903753-r9" x="61" y="142" textLength="24.4" clip-path="url(#terminal-1912903753-line-5)">29</text><text class="terminal-1912903753-r10" x="97.6" y="142" textLength="97.6" clip-path="url(#terminal-1912903753-line-5)">19:42:37</text><text class="terminal-1912903753-r8" x="195.2" y="142" textLength="24.4" clip-path="url(#terminal-1912903753-line-5)">:&#160;</text><text class="terminal-1912903753-r11" x="219.6" y="142" textLength="134.2" clip-path="url(#terminal-1912903753-line-5)">Dark&#160;mode:&#160;</text><text class="terminal-1912903753-r14" x="353.8" y="142" textLength="48.8" clip-path="url(#terminal-1912903753-line-5)">True</text><text class="terminal-1912903753-r1" x="1549.4" y="142" textLength="12.2" clip-path="url(#terminal-1912903753-line-5)">
</text><text class="terminal-1912903753-r1" x="1549.4" y="166.4" textLength="12.2" clip-path="url(#terminal-1912903753-line-6)">
</text><text class="terminal-1912903753-r1" x="1549.4" y="190.8" textLength="12.2" clip-path="url(#terminal-1912903753-line-7)">
</text><text class="terminal-1912903753-r1" x="1549.4" y="215.2" textLength="12.2" clip-path="url(#terminal-1912903753-line-8)">
</text><text class="terminal-1912903753-r1" x="1549.4" y="239.6" textLength="12.2" clip-path="url(#terminal-1912903753-line-9)">
</text><text class="terminal-1912903753-r1" x="1549.4" y="264" textLength="12.2" clip-path="url(#terminal-1912903753-line-10)">
</text><text class="terminal-1912903753-r1" x="1549.4" y="288.4" textLength="12.2" clip-path="url(#terminal-1912903753-line-11)">
</text><text class="terminal-1912903753-r1" x="1549.4" y="312.8" textLength="12.2" clip-path="url(#terminal-1912903753-line-12)">
</text><text class="terminal-1912903753-r1" x="1549.4" y="337.2" textLength="12.2" clip-path="url(#terminal-1912903753-line-13)">
</text><text class="terminal-1912903753-r1" x="1549.4" y="361.6" textLength="12.2" clip-path="url(#terminal-1912903753-line-14)">
</text><text class="terminal-1912903753-r1" x="1549.4" y="386" textLength="12.2" clip-path="url(#terminal-1912903753-line-15)">
</text><text class="terminal-1912903753-r1" x="1549.4" y="410.4" textLength="12.2" clip-path="url(#terminal-1912903753-line-16)">
</text><text class="terminal-1912903753-r1" x="1549.4" y="434.8" textLength="12.2" clip-path="url(#terminal-1912903753-line-17)">
</text><text class="terminal-1912903753-r1" x="1549.4" y="459.2" textLength="12.2" clip-path="url(#terminal-1912903753-line-18)">
</text><text class="terminal-1912903753-r1" x="1549.4" y="483.6" textLength="12.2" clip-path="url(#terminal-1912903753-line-19)">
</text><text class="terminal-1912903753-r1" x="1549.4" y="508" textLength="12.2" clip-path="url(#terminal-1912903753-line-20)">
</text><text class="terminal-1912903753-r1" x="1549.4" y="532.4" textLength="12.2" clip-path="url(#terminal-1912903753-line-21)">
</text><text class="terminal-1912903753-r1" x="1549.4" y="556.8" textLength="12.2" clip-path="url(#terminal-1912903753-line-22)">
</text><text class="terminal-1912903753-r1" x="1549.4" y="581.2" textLength="12.2" clip-path="url(#terminal-1912903753-line-23)">
</text><text class="terminal-1912903753-r1" x="1549.4" y="605.6" textLength="12.2" clip-path="url(#terminal-1912903753-line-24)">
</text><text class="terminal-1912903753-r4" x="73.2" y="630" textLength="183" clip-path="url(#terminal-1912903753-line-25)">Dark&#160;mode:&#160;True</text><text class="terminal-1912903753-r1" x="1549.4" y="630" textLength="12.2" clip-path="url(#terminal-1912903753-line-25)">
</text><text class="terminal-1912903753-r13" x="1512.8" y="654.4" textLength="24.4" clip-path="url(#terminal-1912903753-line-26)">▀▀</text><text class="terminal-1912903753-r1" x="1549.4" y="654.4" textLength="12.2" clip-path="url(#terminal-1912903753-line-26)">
</text><text class="terminal-1912903753-r15" x="0" y="678.8" textLength="1549.4" clip-path="url(#terminal-1912903753-line-27)">━━━━━━━━━━━━━━━━━━━━━━━━━━━━━━━━━━━━━━━━━━━━━━━━━━━━━━━━━━━━━━━━━━━━━━━━━━━━━━━━━━━━━━━━━━━━━━━━━━━━━━━━━━━━━━━━━━━━━━━━━━━━━━━</text><text class="terminal-1912903753-r1" x="1549.4" y="678.8" textLength="12.2" clip-path="url(#terminal-1912903753-line-27)">
</text><text class="terminal-1912903753-r16" x="0" y="703.2" textLength="36.6" clip-path="url(#terminal-1912903753-line-28)">&#160;D&#160;</text><text class="terminal-1912903753-r17" x="36.6" y="703.2" textLength="207.4" clip-path="url(#terminal-1912903753-line-28)">&#160;Toggle&#160;Darkness&#160;</text><text class="terminal-1912903753-r16" x="244" y="703.2" textLength="36.6" clip-path="url(#terminal-1912903753-line-28)">&#160;S&#160;</text><text class="terminal-1912903753-r17" x="280.6" y="703.2" textLength="146.4" clip-path="url(#terminal-1912903753-line-28)">&#160;Screenshot&#160;</text><text class="terminal-1912903753-r16" x="427" y="703.2" textLength="36.6" clip-path="url(#terminal-1912903753-line-28)">&#160;Q&#160;</text><text class="terminal-1912903753-r17" x="463.6" y="703.2" textLength="73.2" clip-path="url(#terminal-1912903753-line-28)">&#160;Quit&#160;</text>
    </g>
    </g>
</svg>
