<svg class="rich-terminal" viewBox="0 0 1568 757.5999999999999" xmlns="http://www.w3.org/2000/svg">
    <!-- Generated with Rich https://www.textualize.io -->
    <style>

    @font-face {
        font-family: "Fira Code";
        src: local("FiraCode-Regular"),
                url("https://cdnjs.cloudflare.com/ajax/libs/firacode/6.2.0/woff2/FiraCode-Regular.woff2") format("woff2"),
                url("https://cdnjs.cloudflare.com/ajax/libs/firacode/6.2.0/woff/FiraCode-Regular.woff") format("woff");
        font-style: normal;
        font-weight: 400;
    }
    @font-face {
        font-family: "Fira Code";
        src: local("FiraCode-Bold"),
                url("https://cdnjs.cloudflare.com/ajax/libs/firacode/6.2.0/woff2/FiraCode-Bold.woff2") format("woff2"),
                url("https://cdnjs.cloudflare.com/ajax/libs/firacode/6.2.0/woff/FiraCode-Bold.woff") format("woff");
        font-style: bold;
        font-weight: 700;
    }

    .terminal-722038225-matrix {
        font-family: Fira Code, monospace;
        font-size: 20px;
        line-height: 24.4px;
        font-variant-east-asian: full-width;
    }

    .terminal-722038225-title {
        font-size: 18px;
        font-weight: bold;
        font-family: arial;
    }

    .terminal-722038225-r1 { fill: #e1e1e1 }
.terminal-722038225-r2 { fill: #656565 }
.terminal-722038225-r3 { fill: #5a5b5b }
.terminal-722038225-r4 { fill: #c5c8c6 }
.terminal-722038225-r5 { fill: #656565;font-weight: bold }
.terminal-722038225-r6 { fill: #3a3b3d }
.terminal-722038225-r7 { fill: #292a2c }
.terminal-722038225-r8 { fill: #0b3a5f }
.terminal-722038225-r9 { fill: #646464 }
.terminal-722038225-r10 { fill: #0a3e3e;font-weight: bold }
.terminal-722038225-r11 { fill: #0a700a;font-weight: bold }
.terminal-722038225-r12 { fill: #646464;font-weight: bold }
.terminal-722038225-r13 { fill: #700a0a;font-weight: bold;font-style: italic; }
.terminal-722038225-r14 { fill: #2d2f32 }
.terminal-722038225-r15 { fill: #0a700a;font-weight: bold;font-style: italic; }
.terminal-722038225-r16 { fill: #131314 }
.terminal-722038225-r17 { fill: #e76580 }
.terminal-722038225-r18 { fill: #507bb3 }
.terminal-722038225-r19 { fill: #b93c5b;font-weight: bold }
.terminal-722038225-r20 { fill: #dde6ed;font-weight: bold }
.terminal-722038225-r21 { fill: #780028 }
.terminal-722038225-r22 { fill: #001541 }
.terminal-722038225-r23 { fill: #1f2225 }
.terminal-722038225-r24 { fill: #636669;font-weight: bold }
.terminal-722038225-r25 { fill: #636668 }
    </style>

    <defs>
    <clipPath id="terminal-722038225-clip-terminal">
      <rect x="0" y="0" width="1548.3999999999999" height="706.5999999999999" />
    </clipPath>
    <clipPath id="terminal-722038225-line-0">
    <rect x="0" y="1.5" width="1549.4" height="24.65"/>
            </clipPath>
<clipPath id="terminal-722038225-line-1">
    <rect x="0" y="25.9" width="1549.4" height="24.65"/>
            </clipPath>
<clipPath id="terminal-722038225-line-2">
    <rect x="0" y="50.3" width="1549.4" height="24.65"/>
            </clipPath>
<clipPath id="terminal-722038225-line-3">
    <rect x="0" y="74.7" width="1549.4" height="24.65"/>
            </clipPath>
<clipPath id="terminal-722038225-line-4">
    <rect x="0" y="99.1" width="1549.4" height="24.65"/>
            </clipPath>
<clipPath id="terminal-722038225-line-5">
    <rect x="0" y="123.5" width="1549.4" height="24.65"/>
            </clipPath>
<clipPath id="terminal-722038225-line-6">
    <rect x="0" y="147.9" width="1549.4" height="24.65"/>
            </clipPath>
<clipPath id="terminal-722038225-line-7">
    <rect x="0" y="172.3" width="1549.4" height="24.65"/>
            </clipPath>
<clipPath id="terminal-722038225-line-8">
    <rect x="0" y="196.7" width="1549.4" height="24.65"/>
            </clipPath>
<clipPath id="terminal-722038225-line-9">
    <rect x="0" y="221.1" width="1549.4" height="24.65"/>
            </clipPath>
<clipPath id="terminal-722038225-line-10">
    <rect x="0" y="245.5" width="1549.4" height="24.65"/>
            </clipPath>
<clipPath id="terminal-722038225-line-11">
    <rect x="0" y="269.9" width="1549.4" height="24.65"/>
            </clipPath>
<clipPath id="terminal-722038225-line-12">
    <rect x="0" y="294.3" width="1549.4" height="24.65"/>
            </clipPath>
<clipPath id="terminal-722038225-line-13">
    <rect x="0" y="318.7" width="1549.4" height="24.65"/>
            </clipPath>
<clipPath id="terminal-722038225-line-14">
    <rect x="0" y="343.1" width="1549.4" height="24.65"/>
            </clipPath>
<clipPath id="terminal-722038225-line-15">
    <rect x="0" y="367.5" width="1549.4" height="24.65"/>
            </clipPath>
<clipPath id="terminal-722038225-line-16">
    <rect x="0" y="391.9" width="1549.4" height="24.65"/>
            </clipPath>
<clipPath id="terminal-722038225-line-17">
    <rect x="0" y="416.3" width="1549.4" height="24.65"/>
            </clipPath>
<clipPath id="terminal-722038225-line-18">
    <rect x="0" y="440.7" width="1549.4" height="24.65"/>
            </clipPath>
<clipPath id="terminal-722038225-line-19">
    <rect x="0" y="465.1" width="1549.4" height="24.65"/>
            </clipPath>
<clipPath id="terminal-722038225-line-20">
    <rect x="0" y="489.5" width="1549.4" height="24.65"/>
            </clipPath>
<clipPath id="terminal-722038225-line-21">
    <rect x="0" y="513.9" width="1549.4" height="24.65"/>
            </clipPath>
<clipPath id="terminal-722038225-line-22">
    <rect x="0" y="538.3" width="1549.4" height="24.65"/>
            </clipPath>
<clipPath id="terminal-722038225-line-23">
    <rect x="0" y="562.7" width="1549.4" height="24.65"/>
            </clipPath>
<clipPath id="terminal-722038225-line-24">
    <rect x="0" y="587.1" width="1549.4" height="24.65"/>
            </clipPath>
<clipPath id="terminal-722038225-line-25">
    <rect x="0" y="611.5" width="1549.4" height="24.65"/>
            </clipPath>
<clipPath id="terminal-722038225-line-26">
    <rect x="0" y="635.9" width="1549.4" height="24.65"/>
            </clipPath>
<clipPath id="terminal-722038225-line-27">
    <rect x="0" y="660.3" width="1549.4" height="24.65"/>
            </clipPath>
    </defs>

    <rect fill="#292929" stroke="rgba(255,255,255,0.35)" stroke-width="1" x="1" y="1" width="1566" height="755.6" rx="8"/><text class="terminal-722038225-title" fill="#c5c8c6" text-anchor="middle" x="783" y="27">Textual&#160;Application</text>
            <g transform="translate(26,22)">
            <circle cx="0" cy="0" r="7" fill="#ff5f57"/>
            <circle cx="22" cy="0" r="7" fill="#febc2e"/>
            <circle cx="44" cy="0" r="7" fill="#28c840"/>
            </g>
        
    <g transform="translate(9, 41)" clip-path="url(#terminal-722038225-clip-terminal)">
    <rect fill="#191b1d" x="0" y="1.5" width="12.2" height="24.65" shape-rendering="crispEdges"/><rect fill="#191b1d" x="12.2" y="1.5" width="12.2" height="24.65" shape-rendering="crispEdges"/><rect fill="#191b1d" x="24.4" y="1.5" width="61" height="24.65" shape-rendering="crispEdges"/><rect fill="#191b1d" x="85.4" y="1.5" width="12.2" height="24.65" shape-rendering="crispEdges"/><rect fill="#191b1d" x="97.6" y="1.5" width="549" height="24.65" shape-rendering="crispEdges"/><rect fill="#191b1d" x="646.6" y="1.5" width="231.8" height="24.65" shape-rendering="crispEdges"/><rect fill="#191b1d" x="878.4" y="1.5" width="549" height="24.65" shape-rendering="crispEdges"/><rect fill="#1c1e20" x="1427.4" y="1.5" width="12.2" height="24.65" shape-rendering="crispEdges"/><rect fill="#1c1e20" x="1439.6" y="1.5" width="0" height="24.65" shape-rendering="crispEdges"/><rect fill="#1c1e20" x="1439.6" y="1.5" width="97.6" height="24.65" shape-rendering="crispEdges"/><rect fill="#1c1e20" x="1537.2" y="1.5" width="12.2" height="24.65" shape-rendering="crispEdges"/><rect fill="#191b1d" x="0" y="25.9" width="85.4" height="24.65" shape-rendering="crispEdges"/><rect fill="#191b1d" x="85.4" y="25.9" width="97.6" height="24.65" shape-rendering="crispEdges"/><rect fill="#191b1d" x="183" y="25.9" width="1366.4" height="24.65" shape-rendering="crispEdges"/><rect fill="#191b1d" x="0" y="50.3" width="24.4" height="24.65" shape-rendering="crispEdges"/><rect fill="#191b1d" x="24.4" y="50.3" width="48.8" height="24.65" shape-rendering="crispEdges"/><rect fill="#191b1d" x="73.2" y="50.3" width="12.2" height="24.65" shape-rendering="crispEdges"/><rect fill="#191b1d" x="85.4" y="50.3" width="24.4" height="24.65" shape-rendering="crispEdges"/><rect fill="#191b1d" x="109.8" y="50.3" width="61" height="24.65" shape-rendering="crispEdges"/><rect fill="#191b1d" x="170.8" y="50.3" width="12.2" height="24.65" shape-rendering="crispEdges"/><rect fill="#191b1d" x="183" y="50.3" width="1366.4" height="24.65" shape-rendering="crispEdges"/><rect fill="#191b1d" x="0" y="74.7" width="12.2" height="24.65" shape-rendering="crispEdges"/><rect fill="#191b1d" x="12.2" y="74.7" width="12.2" height="24.65" shape-rendering="crispEdges"/><rect fill="#191b1d" x="24.4" y="74.7" width="48.8" height="24.65" shape-rendering="crispEdges"/><rect fill="#191b1d" x="73.2" y="74.7" width="12.2" height="24.65" shape-rendering="crispEdges"/><rect fill="#191b1d" x="85.4" y="74.7" width="1464" height="24.65" shape-rendering="crispEdges"/><rect fill="#191b1d" x="0" y="99.1" width="12.2" height="24.65" shape-rendering="crispEdges"/><rect fill="#121212" x="12.2" y="99.1" width="48.8" height="24.65" shape-rendering="crispEdges"/><rect fill="#121212" x="61" y="99.1" width="24.4" height="24.65" shape-rendering="crispEdges"/><rect fill="#121212" x="85.4" y="99.1" width="12.2" height="24.65" shape-rendering="crispEdges"/><rect fill="#121212" x="97.6" y="99.1" width="97.6" height="24.65" shape-rendering="crispEdges"/><rect fill="#121212" x="195.2" y="99.1" width="24.4" height="24.65" shape-rendering="crispEdges"/><rect fill="#121212" x="219.6" y="99.1" width="134.2" height="24.65" shape-rendering="crispEdges"/><rect fill="#121212" x="353.8" y="99.1" width="61" height="24.65" shape-rendering="crispEdges"/><rect fill="#121212" x="414.8" y="99.1" width="1098" height="24.65" shape-rendering="crispEdges"/><rect fill="#121212" x="1512.8" y="99.1" width="24.4" height="24.65" shape-rendering="crispEdges"/><rect fill="#191b1d" x="1537.2" y="99.1" width="12.2" height="24.65" shape-rendering="crispEdges"/><rect fill="#191b1d" x="0" y="123.5" width="12.2" height="24.65" shape-rendering="crispEdges"/><rect fill="#121212" x="12.2" y="123.5" width="48.8" height="24.65" shape-rendering="crispEdges"/><rect fill="#121212" x="61" y="123.5" width="24.4" height="24.65" shape-rendering="crispEdges"/><rect fill="#121212" x="85.4" y="123.5" width="12.2" height="24.65" shape-rendering="crispEdges"/><rect fill="#121212" x="97.6" y="123.5" width="97.6" height="24.65" shape-rendering="crispEdges"/><rect fill="#121212" x="195.2" y="123.5" width="24.4" height="24.65" shape-rendering="crispEdges"/><rect fill="#121212" x="219.6" y="123.5" width="134.2" height="24.65" shape-rendering="crispEdges"/><rect fill="#121212" x="353.8" y="123.5" width="48.8" height="24.65" shape-rendering="crispEdges"/><rect fill="#121212" x="402.6" y="123.5" width="1110.2" height="24.65" shape-rendering="crispEdges"/><rect fill="#121417" x="1512.8" y="123.5" width="24.4" height="24.65" shape-rendering="crispEdges"/><rect fill="#191b1d" x="1537.2" y="123.5" width="12.2" height="24.65" shape-rendering="crispEdges"/><rect fill="#191b1d" x="0" y="147.9" width="12.2" height="24.65" shape-rendering="crispEdges"/><rect fill="#121212" x="12.2" y="147.9" width="1500.6" height="24.65" shape-rendering="crispEdges"/><rect fill="#121417" x="1512.8" y="147.9" width="24.4" height="24.65" shape-rendering="crispEdges"/><rect fill="#191b1d" x="1537.2" y="147.9" width="12.2" height="24.65" shape-rendering="crispEdges"/><rect fill="#191b1d" x="0" y="172.3" width="12.2" height="24.65" shape-rendering="crispEdges"/><rect fill="#121212" x="12.2" y="172.3" width="1500.6" height="24.65" shape-rendering="crispEdges"/><rect fill="#121417" x="1512.8" y="172.3" width="24.4" height="24.65" shape-rendering="crispEdges"/><rect fill="#191b1d" x="1537.2" y="172.3" width="12.2" height="24.65" shape-rendering="crispEdges"/><rect fill="#191b1d" x="0" y="196.7" width="12.2" height="24.65" shape-rendering="crispEdges"/><rect fill="#121212" x="12.2" y="196.7" width="1500.6" height="24.65" shape-rendering="crispEdges"/><rect fill="#121417" x="1512.8" y="196.7" width="24.4" height="24.65" shape-rendering="crispEdges"/><rect fill="#191b1d" x="1537.2" y="196.7" width="12.2" height="24.65" shape-rendering="crispEdges"/><rect fill="#191b1d" x="0" y="221.1" width="12.2" height="24.65" shape-rendering="crispEdges"/><rect fill="#121212" x="12.2" y="221.1" width="390.4" height="24.65" shape-rendering="crispEdges"/><rect fill="#1e1e1e" x="402.6" y="221.1" width="12.2" height="24.65" shape-rendering="crispEdges"/><rect fill="#1e1e1e" x="414.8" y="221.1" width="707.6" height="24.65" shape-rendering="crispEdges"/><rect fill="#1e1e1e" x="1122.4" y="221.1" width="12.2" height="24.65" shape-rendering="crispEdges"/><rect fill="#121212" x="1134.6" y="221.1" width="378.2" height="24.65" shape-rendering="crispEdges"/><rect fill="#121417" x="1512.8" y="221.1" width="24.4" height="24.65" shape-rendering="crispEdges"/><rect fill="#191b1d" x="1537.2" y="221.1" width="12.2" height="24.65" shape-rendering="crispEdges"/><rect fill="#191b1d" x="0" y="245.5" width="12.2" height="24.65" shape-rendering="crispEdges"/><rect fill="#121212" x="12.2" y="245.5" width="390.4" height="24.65" shape-rendering="crispEdges"/><rect fill="#1e1e1e" x="402.6" y="245.5" width="12.2" height="24.65" shape-rendering="crispEdges"/><rect fill="#1e1e1e" x="414.8" y="245.5" width="12.2" height="24.65" shape-rendering="crispEdges"/><rect fill="#1e1e1e" x="427" y="245.5" width="683.2" height="24.65" shape-rendering="crispEdges"/><rect fill="#1e1e1e" x="1110.2" y="245.5" width="12.2" height="24.65" shape-rendering="crispEdges"/><rect fill="#1e1e1e" x="1122.4" y="245.5" width="12.2" height="24.65" shape-rendering="crispEdges"/><rect fill="#121212" x="1134.6" y="245.5" width="378.2" height="24.65" shape-rendering="crispEdges"/><rect fill="#121417" x="1512.8" y="245.5" width="24.4" height="24.65" shape-rendering="crispEdges"/><rect fill="#191b1d" x="1537.2" y="245.5" width="12.2" height="24.65" shape-rendering="crispEdges"/><rect fill="#191b1d" x="0" y="269.9" width="12.2" height="24.65" shape-rendering="crispEdges"/><rect fill="#121212" x="12.2" y="269.9" width="390.4" height="24.65" shape-rendering="crispEdges"/><rect fill="#1e1e1e" x="402.6" y="269.9" width="12.2" height="24.65" shape-rendering="crispEdges"/><rect fill="#1e1e1e" x="414.8" y="269.9" width="12.2" height="24.65" shape-rendering="crispEdges"/><rect fill="#1e1e1e" x="427" y="269.9" width="683.2" height="24.65" shape-rendering="crispEdges"/><rect fill="#1e1e1e" x="1110.2" y="269.9" width="12.2" height="24.65" shape-rendering="crispEdges"/><rect fill="#1e1e1e" x="1122.4" y="269.9" width="12.2" height="24.65" shape-rendering="crispEdges"/><rect fill="#121212" x="1134.6" y="269.9" width="378.2" height="24.65" shape-rendering="crispEdges"/><rect fill="#121417" x="1512.8" y="269.9" width="24.4" height="24.65" shape-rendering="crispEdges"/><rect fill="#191b1d" x="1537.2" y="269.9" width="12.2" height="24.65" shape-rendering="crispEdges"/><rect fill="#191b1d" x="0" y="294.3" width="12.2" height="24.65" shape-rendering="crispEdges"/><rect fill="#121212" x="12.2" y="294.3" width="390.4" height="24.65" shape-rendering="crispEdges"/><rect fill="#1e1e1e" x="402.6" y="294.3" width="12.2" height="24.65" shape-rendering="crispEdges"/><rect fill="#1e1e1e" x="414.8" y="294.3" width="12.2" height="24.65" shape-rendering="crispEdges"/><rect fill="#1e1e1e" x="427" y="294.3" width="158.6" height="24.65" shape-rendering="crispEdges"/><rect fill="#1e1e1e" x="585.6" y="294.3" width="366" height="24.65" shape-rendering="crispEdges"/><rect fill="#1e1e1e" x="951.6" y="294.3" width="158.6" height="24.65" shape-rendering="crispEdges"/><rect fill="#1e1e1e" x="1110.2" y="294.3" width="12.2" height="24.65" shape-rendering="crispEdges"/><rect fill="#1e1e1e" x="1122.4" y="294.3" width="12.2" height="24.65" shape-rendering="crispEdges"/><rect fill="#121212" x="1134.6" y="294.3" width="378.2" height="24.65" shape-rendering="crispEdges"/><rect fill="#121417" x="1512.8" y="294.3" width="24.4" height="24.65" shape-rendering="crispEdges"/><rect fill="#191b1d" x="1537.2" y="294.3" width="12.2" height="24.65" shape-rendering="crispEdges"/><rect fill="#191b1d" x="0" y="318.7" width="12.2" height="24.65" shape-rendering="crispEdges"/><rect fill="#121212" x="12.2" y="318.7" width="390.4" height="24.65" shape-rendering="crispEdges"/><rect fill="#1e1e1e" x="402.6" y="318.7" width="12.2" height="24.65" shape-rendering="crispEdges"/><rect fill="#1e1e1e" x="414.8" y="318.7" width="12.2" height="24.65" shape-rendering="crispEdges"/><rect fill="#1e1e1e" x="427" y="318.7" width="683.2" height="24.65" shape-rendering="crispEdges"/><rect fill="#1e1e1e" x="1110.2" y="318.7" width="12.2" height="24.65" shape-rendering="crispEdges"/><rect fill="#1e1e1e" x="1122.4" y="318.7" width="12.2" height="24.65" shape-rendering="crispEdges"/><rect fill="#121212" x="1134.6" y="318.7" width="378.2" height="24.65" shape-rendering="crispEdges"/><rect fill="#121417" x="1512.8" y="318.7" width="24.4" height="24.65" shape-rendering="crispEdges"/><rect fill="#191b1d" x="1537.2" y="318.7" width="12.2" height="24.65" shape-rendering="crispEdges"/><rect fill="#191b1d" x="0" y="343.1" width="12.2" height="24.65" shape-rendering="crispEdges"/><rect fill="#121212" x="12.2" y="343.1" width="390.4" height="24.65" shape-rendering="crispEdges"/><rect fill="#1e1e1e" x="402.6" y="343.1" width="12.2" height="24.65" shape-rendering="crispEdges"/><rect fill="#1e1e1e" x="414.8" y="343.1" width="12.2" height="24.65" shape-rendering="crispEdges"/><rect fill="#1e1e1e" x="427" y="343.1" width="683.2" height="24.65" shape-rendering="crispEdges"/><rect fill="#1e1e1e" x="1110.2" y="343.1" width="12.2" height="24.65" shape-rendering="crispEdges"/><rect fill="#1e1e1e" x="1122.4" y="343.1" width="12.2" height="24.65" shape-rendering="crispEdges"/><rect fill="#121212" x="1134.6" y="343.1" width="378.2" height="24.65" shape-rendering="crispEdges"/><rect fill="#121417" x="1512.8" y="343.1" width="24.4" height="24.65" shape-rendering="crispEdges"/><rect fill="#191b1d" x="1537.2" y="343.1" width="12.2" height="24.65" shape-rendering="crispEdges"/><rect fill="#191b1d" x="0" y="367.5" width="12.2" height="24.65" shape-rendering="crispEdges"/><rect fill="#121212" x="12.2" y="367.5" width="390.4" height="24.65" shape-rendering="crispEdges"/><rect fill="#1e1e1e" x="402.6" y="367.5" width="12.2" height="24.65" shape-rendering="crispEdges"/><rect fill="#1e1e1e" x="414.8" y="367.5" width="12.2" height="24.65" shape-rendering="crispEdges"/><rect fill="#1e1e1e" x="427" y="367.5" width="683.2" height="24.65" shape-rendering="crispEdges"/><rect fill="#1e1e1e" x="1110.2" y="367.5" width="12.2" height="24.65" shape-rendering="crispEdges"/><rect fill="#1e1e1e" x="1122.4" y="367.5" width="12.2" height="24.65" shape-rendering="crispEdges"/><rect fill="#121212" x="1134.6" y="367.5" width="378.2" height="24.65" shape-rendering="crispEdges"/><rect fill="#121417" x="1512.8" y="367.5" width="24.4" height="24.65" shape-rendering="crispEdges"/><rect fill="#191b1d" x="1537.2" y="367.5" width="12.2" height="24.65" shape-rendering="crispEdges"/><rect fill="#191b1d" x="0" y="391.9" width="12.2" height="24.65" shape-rendering="crispEdges"/><rect fill="#121212" x="12.2" y="391.9" width="390.4" height="24.65" shape-rendering="crispEdges"/><rect fill="#1e1e1e" x="402.6" y="391.9" width="12.2" height="24.65" shape-rendering="crispEdges"/><rect fill="#1e1e1e" x="414.8" y="391.9" width="12.2" height="24.65" shape-rendering="crispEdges"/><rect fill="#b93c5b" x="427" y="391.9" width="329.4" height="24.65" shape-rendering="crispEdges"/><rect fill="#1e1e1e" x="756.4" y="391.9" width="24.4" height="24.65" shape-rendering="crispEdges"/><rect fill="#004578" x="780.8" y="391.9" width="329.4" height="24.65" shape-rendering="crispEdges"/><rect fill="#1e1e1e" x="1110.2" y="391.9" width="12.2" height="24.65" shape-rendering="crispEdges"/><rect fill="#1e1e1e" x="1122.4" y="391.9" width="12.2" height="24.65" shape-rendering="crispEdges"/><rect fill="#121212" x="1134.6" y="391.9" width="378.2" height="24.65" shape-rendering="crispEdges"/><rect fill="#121417" x="1512.8" y="391.9" width="24.4" height="24.65" shape-rendering="crispEdges"/><rect fill="#191b1d" x="1537.2" y="391.9" width="12.2" height="24.65" shape-rendering="crispEdges"/><rect fill="#191b1d" x="0" y="416.3" width="12.2" height="24.65" shape-rendering="crispEdges"/><rect fill="#121212" x="12.2" y="416.3" width="390.4" height="24.65" shape-rendering="crispEdges"/><rect fill="#1e1e1e" x="402.6" y="416.3" width="12.2" height="24.65" shape-rendering="crispEdges"/><rect fill="#1e1e1e" x="414.8" y="416.3" width="12.2" height="24.65" shape-rendering="crispEdges"/><rect fill="#b93c5b" x="427" y="416.3" width="122" height="24.65" shape-rendering="crispEdges"/><rect fill="#f5e5e9" x="549" y="416.3" width="12.2" height="24.65" shape-rendering="crispEdges"/><rect fill="#f5e5e9" x="561.2" y="416.3" width="48.8" height="24.65" shape-rendering="crispEdges"/><rect fill="#f5e5e9" x="610" y="416.3" width="12.2" height="24.65" shape-rendering="crispEdges"/><rect fill="#b93c5b" x="622.2" y="416.3" width="134.2" height="24.65" shape-rendering="crispEdges"/><rect fill="#1e1e1e" x="756.4" y="416.3" width="24.4" height="24.65" shape-rendering="crispEdges"/><rect fill="#004578" x="780.8" y="416.3" width="109.8" height="24.65" shape-rendering="crispEdges"/><rect fill="#004578" x="890.6" y="416.3" width="12.2" height="24.65" shape-rendering="crispEdges"/><rect fill="#004578" x="902.8" y="416.3" width="73.2" height="24.65" shape-rendering="crispEdges"/><rect fill="#004578" x="976" y="416.3" width="12.2" height="24.65" shape-rendering="crispEdges"/><rect fill="#004578" x="988.2" y="416.3" width="122" height="24.65" shape-rendering="crispEdges"/><rect fill="#1e1e1e" x="1110.2" y="416.3" width="12.2" height="24.65" shape-rendering="crispEdges"/><rect fill="#1e1e1e" x="1122.4" y="416.3" width="12.2" height="24.65" shape-rendering="crispEdges"/><rect fill="#121212" x="1134.6" y="416.3" width="378.2" height="24.65" shape-rendering="crispEdges"/><rect fill="#121417" x="1512.8" y="416.3" width="24.4" height="24.65" shape-rendering="crispEdges"/><rect fill="#191b1d" x="1537.2" y="416.3" width="12.2" height="24.65" shape-rendering="crispEdges"/><rect fill="#191b1d" x="0" y="440.7" width="12.2" height="24.65" shape-rendering="crispEdges"/><rect fill="#121212" x="12.2" y="440.7" width="390.4" height="24.65" shape-rendering="crispEdges"/><rect fill="#1e1e1e" x="402.6" y="440.7" width="12.2" height="24.65" shape-rendering="crispEdges"/><rect fill="#1e1e1e" x="414.8" y="440.7" width="12.2" height="24.65" shape-rendering="crispEdges"/><rect fill="#b93c5b" x="427" y="440.7" width="329.4" height="24.65" shape-rendering="crispEdges"/><rect fill="#1e1e1e" x="756.4" y="440.7" width="24.4" height="24.65" shape-rendering="crispEdges"/><rect fill="#004578" x="780.8" y="440.7" width="329.4" height="24.65" shape-rendering="crispEdges"/><rect fill="#1e1e1e" x="1110.2" y="440.7" width="12.2" height="24.65" shape-rendering="crispEdges"/><rect fill="#1e1e1e" x="1122.4" y="440.7" width="12.2" height="24.65" shape-rendering="crispEdges"/><rect fill="#121212" x="1134.6" y="440.7" width="378.2" height="24.65" shape-rendering="crispEdges"/><rect fill="#121417" x="1512.8" y="440.7" width="24.4" height="24.65" shape-rendering="crispEdges"/><rect fill="#191b1d" x="1537.2" y="440.7" width="12.2" height="24.65" shape-rendering="crispEdges"/><rect fill="#191b1d" x="0" y="465.1" width="12.2" height="24.65" shape-rendering="crispEdges"/><rect fill="#121212" x="12.2" y="465.1" width="390.4" height="24.65" shape-rendering="crispEdges"/><rect fill="#1e1e1e" x="402.6" y="465.1" width="12.2" height="24.65" shape-rendering="crispEdges"/><rect fill="#1e1e1e" x="414.8" y="465.1" width="707.6" height="24.65" shape-rendering="crispEdges"/><rect fill="#1e1e1e" x="1122.4" y="465.1" width="12.2" height="24.65" shape-rendering="crispEdges"/><rect fill="#121212" x="1134.6" y="465.1" width="378.2" height="24.65" shape-rendering="crispEdges"/><rect fill="#121417" x="1512.8" y="465.1" width="24.4" height="24.65" shape-rendering="crispEdges"/><rect fill="#191b1d" x="1537.2" y="465.1" width="12.2" height="24.65" shape-rendering="crispEdges"/><rect fill="#191b1d" x="0" y="489.5" width="12.2" height="24.65" shape-rendering="crispEdges"/><rect fill="#121212" x="12.2" y="489.5" width="1500.6" height="24.65" shape-rendering="crispEdges"/><rect fill="#121417" x="1512.8" y="489.5" width="24.4" height="24.65" shape-rendering="crispEdges"/><rect fill="#191b1d" x="1537.2" y="489.5" width="12.2" height="24.65" shape-rendering="crispEdges"/><rect fill="#191b1d" x="0" y="513.9" width="12.2" height="24.65" shape-rendering="crispEdges"/><rect fill="#121212" x="12.2" y="513.9" width="1500.6" height="24.65" shape-rendering="crispEdges"/><rect fill="#121417" x="1512.8" y="513.9" width="24.4" height="24.65" shape-rendering="crispEdges"/><rect fill="#191b1d" x="1537.2" y="513.9" width="12.2" height="24.65" shape-rendering="crispEdges"/><rect fill="#191b1d" x="0" y="538.3" width="12.2" height="24.65" shape-rendering="crispEdges"/><rect fill="#121212" x="12.2" y="538.3" width="1500.6" height="24.65" shape-rendering="crispEdges"/><rect fill="#121417" x="1512.8" y="538.3" width="24.4" height="24.65" shape-rendering="crispEdges"/><rect fill="#191b1d" x="1537.2" y="538.3" width="12.2" height="24.65" shape-rendering="crispEdges"/><rect fill="#191b1d" x="0" y="562.7" width="12.2" height="24.65" shape-rendering="crispEdges"/><rect fill="#121212" x="12.2" y="562.7" width="1500.6" height="24.65" shape-rendering="crispEdges"/><rect fill="#121417" x="1512.8" y="562.7" width="24.4" height="24.65" shape-rendering="crispEdges"/><rect fill="#191b1d" x="1537.2" y="562.7" width="12.2" height="24.65" shape-rendering="crispEdges"/><rect fill="#191b1d" x="0" y="587.1" width="12.2" height="24.65" shape-rendering="crispEdges"/><rect fill="#121212" x="12.2" y="587.1" width="36.6" height="24.65" shape-rendering="crispEdges"/><rect fill="#191b1d" x="48.8" y="587.1" width="219.6" height="24.65" shape-rendering="crispEdges"/><rect fill="#191b1d" x="268.4" y="587.1" width="12.2" height="24.65" shape-rendering="crispEdges"/><rect fill="#191b1d" x="280.6" y="587.1" width="12.2" height="24.65" shape-rendering="crispEdges"/><rect fill="#121212" x="292.8" y="587.1" width="1220" height="24.65" shape-rendering="crispEdges"/><rect fill="#121417" x="1512.8" y="587.1" width="24.4" height="24.65" shape-rendering="crispEdges"/><rect fill="#191b1d" x="1537.2" y="587.1" width="12.2" height="24.65" shape-rendering="crispEdges"/><rect fill="#191b1d" x="0" y="611.5" width="12.2" height="24.65" shape-rendering="crispEdges"/><rect fill="#121212" x="12.2" y="611.5" width="36.6" height="24.65" shape-rendering="crispEdges"/><rect fill="#191b1d" x="48.8" y="611.5" width="24.4" height="24.65" shape-rendering="crispEdges"/><rect fill="#191b1d" x="73.2" y="611.5" width="183" height="24.65" shape-rendering="crispEdges"/><rect fill="#191b1d" x="256.2" y="611.5" width="12.2" height="24.65" shape-rendering="crispEdges"/><rect fill="#191b1d" x="268.4" y="611.5" width="12.2" height="24.65" shape-rendering="crispEdges"/><rect fill="#191b1d" x="280.6" y="611.5" width="12.2" height="24.65" shape-rendering="crispEdges"/><rect fill="#121212" x="292.8" y="611.5" width="1220" height="24.65" shape-rendering="crispEdges"/><rect fill="#121417" x="1512.8" y="611.5" width="24.4" height="24.65" shape-rendering="crispEdges"/><rect fill="#191b1d" x="1537.2" y="611.5" width="12.2" height="24.65" shape-rendering="crispEdges"/><rect fill="#191b1d" x="0" y="635.9" width="12.2" height="24.65" shape-rendering="crispEdges"/><rect fill="#121212" x="12.2" y="635.9" width="36.6" height="24.65" shape-rendering="crispEdges"/><rect fill="#191b1d" x="48.8" y="635.9" width="219.6" height="24.65" shape-rendering="crispEdges"/><rect fill="#191b1d" x="268.4" y="635.9" width="12.2" height="24.65" shape-rendering="crispEdges"/><rect fill="#191b1d" x="280.6" y="635.9" width="12.2" height="24.65" shape-rendering="crispEdges"/><rect fill="#121212" x="292.8" y="635.9" width="1220" height="24.65" shape-rendering="crispEdges"/><rect fill="#121212" x="1512.8" y="635.9" width="24.4" height="24.65" shape-rendering="crispEdges"/><rect fill="#191b1d" x="1537.2" y="635.9" width="12.2" height="24.65" shape-rendering="crispEdges"/><rect fill="#191b1d" x="0" y="660.3" width="1549.4" height="24.65" shape-rendering="crispEdges"/><rect fill="#0a263a" x="0" y="684.7" width="36.6" height="24.65" shape-rendering="crispEdges"/><rect fill="#0d2231" x="36.6" y="684.7" width="207.4" height="24.65" shape-rendering="crispEdges"/><rect fill="#0a263a" x="244" y="684.7" width="36.6" height="24.65" shape-rendering="crispEdges"/><rect fill="#0d2231" x="280.6" y="684.7" width="146.4" height="24.65" shape-rendering="crispEdges"/><rect fill="#0a263a" x="427" y="684.7" width="36.6" height="24.65" shape-rendering="crispEdges"/><rect fill="#0d2231" x="463.6" y="684.7" width="73.2" height="24.65" shape-rendering="crispEdges"/><rect fill="#0d2231" x="536.8" y="684.7" width="1012.6" height="24.65" shape-rendering="crispEdges"/>
    <g class="terminal-722038225-matrix">
    <text class="terminal-722038225-r2" x="12.2" y="20" textLength="12.2" clip-path="url(#terminal-722038225-line-0)">⭘</text><text class="terminal-722038225-r2" x="646.6" y="20" textLength="231.8" clip-path="url(#terminal-722038225-line-0)">Textual&#160;Application</text><text class="terminal-722038225-r3" x="1439.6" y="20" textLength="97.6" clip-path="url(#terminal-722038225-line-0)">19:43:26</text><text class="terminal-722038225-r4" x="1549.4" y="20" textLength="12.2" clip-path="url(#terminal-722038225-line-0)">
</text><text class="terminal-722038225-r4" x="1549.4" y="44.4" textLength="12.2" clip-path="url(#terminal-722038225-line-1)">
</text><text class="terminal-722038225-r5" x="24.4" y="68.8" textLength="48.8" clip-path="url(#terminal-722038225-line-2)">Main</text><text class="terminal-722038225-r6" x="109.8" y="68.8" textLength="61" clip-path="url(#terminal-722038225-line-2)">About</text><text class="terminal-722038225-r4" x="1549.4" y="68.8" textLength="12.2" clip-path="url(#terminal-722038225-line-2)">
</text><text class="terminal-722038225-r7" x="0" y="93.2" textLength="12.2" clip-path="url(#terminal-722038225-line-3)">━</text><text class="terminal-722038225-r7" x="12.2" y="93.2" textLength="12.2" clip-path="url(#terminal-722038225-line-3)">╸</text><text class="terminal-722038225-r8" x="24.4" y="93.2" textLength="48.8" clip-path="url(#terminal-722038225-line-3)">━━━━</text><text class="terminal-722038225-r7" x="73.2" y="93.2" textLength="12.2" clip-path="url(#terminal-722038225-line-3)">╺</text><text class="terminal-722038225-r7" x="85.4" y="93.2" textLength="1464" clip-path="url(#terminal-722038225-line-3)">━━━━━━━━━━━━━━━━━━━━━━━━━━━━━━━━━━━━━━━━━━━━━━━━━━━━━━━━━━━━━━━━━━━━━━━━━━━━━━━━━━━━━━━━━━━━━━━━━━━━━━━━━━━━━━━━━━━━━━━━</text><text class="terminal-722038225-r4" x="1549.4" y="93.2" textLength="12.2" clip-path="url(#terminal-722038225-line-3)">
</text><text class="terminal-722038225-r9" x="12.2" y="117.6" textLength="48.8" clip-path="url(#terminal-722038225-line-4)">Jun&#160;</text><text class="terminal-722038225-r10" x="61" y="117.6" textLength="24.4" clip-path="url(#terminal-722038225-line-4)">29</text><text class="terminal-722038225-r11" x="97.6" y="117.6" textLength="97.6" clip-path="url(#terminal-722038225-line-4)">19:43:24</text><text class="terminal-722038225-r9" x="195.2" y="117.6" textLength="24.4" clip-path="url(#terminal-722038225-line-4)">:&#160;</text><text class="terminal-722038225-r12" x="219.6" y="117.6" textLength="134.2" clip-path="url(#terminal-722038225-line-4)">Dark&#160;mode:&#160;</text><text class="terminal-722038225-r13" x="353.8" y="117.6" textLength="61" clip-path="url(#terminal-722038225-line-4)">False</text><text class="terminal-722038225-r14" x="1512.8" y="117.6" textLength="24.4" clip-path="url(#terminal-722038225-line-4)">▄▄</text><text class="terminal-722038225-r4" x="1549.4" y="117.6" textLength="12.2" clip-path="url(#terminal-722038225-line-4)">
</text><text class="terminal-722038225-r9" x="12.2" y="142" textLength="48.8" clip-path="url(#terminal-722038225-line-5)">Jun&#160;</text><text class="terminal-722038225-r10" x="61" y="142" textLength="24.4" clip-path="url(#terminal-722038225-line-5)">29</text><text class="terminal-722038225-r11" x="97.6" y="142" textLength="97.6" clip-path="url(#terminal-722038225-line-5)">19:43:24</text><text class="terminal-722038225-r9" x="195.2" y="142" textLength="24.4" clip-path="url(#terminal-722038225-line-5)">:&#160;</text><text class="terminal-722038225-r12" x="219.6" y="142" textLength="134.2" clip-path="url(#terminal-722038225-line-5)">Dark&#160;mode:&#160;</text><text class="terminal-722038225-r15" x="353.8" y="142" textLength="48.8" clip-path="url(#terminal-722038225-line-5)">True</text><text class="terminal-722038225-r4" x="1549.4" y="142" textLength="12.2" clip-path="url(#terminal-722038225-line-5)">
</text><text class="terminal-722038225-r4" x="1549.4" y="166.4" textLength="12.2" clip-path="url(#terminal-722038225-line-6)">
</text><text class="terminal-722038225-r4" x="1549.4" y="190.8" textLength="12.2" clip-path="url(#terminal-722038225-line-7)">
</text><text class="terminal-722038225-r4" x="1549.4" y="215.2" textLength="12.2" clip-path="url(#terminal-722038225-line-8)">
</text><text class="terminal-722038225-r16" x="402.6" y="239.6" textLength="12.2" clip-path="url(#terminal-722038225-line-9)">█</text><text class="terminal-722038225-r16" x="414.8" y="239.6" textLength="707.6" clip-path="url(#terminal-722038225-line-9)">▀▀▀▀▀▀▀▀▀▀▀▀▀▀▀▀▀▀▀▀▀▀▀▀▀▀▀▀▀▀▀▀▀▀▀▀▀▀▀▀▀▀▀▀▀▀▀▀▀▀▀▀▀▀▀▀▀▀</text><text class="terminal-722038225-r16" x="1122.4" y="239.6" textLength="12.2" clip-path="url(#terminal-722038225-line-9)">█</text><text class="terminal-722038225-r4" x="1549.4" y="239.6" textLength="12.2" clip-path="url(#terminal-722038225-line-9)">
</text><text class="terminal-722038225-r16" x="402.6" y="264" textLength="12.2" clip-path="url(#terminal-722038225-line-10)">█</text><text class="terminal-722038225-r16" x="1122.4" y="264" textLength="12.2" clip-path="url(#terminal-722038225-line-10)">█</text><text class="terminal-722038225-r4" x="1549.4" y="264" textLength="12.2" clip-path="url(#terminal-722038225-line-10)">
</text><text class="terminal-722038225-r16" x="402.6" y="288.4" textLength="12.2" clip-path="url(#terminal-722038225-line-11)">█</text><text class="terminal-722038225-r16" x="1122.4" y="288.4" textLength="12.2" clip-path="url(#terminal-722038225-line-11)">█</text><text class="terminal-722038225-r4" x="1549.4" y="288.4" textLength="12.2" clip-path="url(#terminal-722038225-line-11)">
</text><text class="terminal-722038225-r16" x="402.6" y="312.8" textLength="12.2" clip-path="url(#terminal-722038225-line-12)">█</text><text class="terminal-722038225-r1" x="585.6" y="312.8" textLength="366" clip-path="url(#terminal-722038225-line-12)">Are&#160;you&#160;sure&#160;you&#160;want&#160;to&#160;quit?</text><text class="terminal-722038225-r16" x="1122.4" y="312.8" textLength="12.2" clip-path="url(#terminal-722038225-line-12)">█</text><text class="terminal-722038225-r4" x="1549.4" y="312.8" textLength="12.2" clip-path="url(#terminal-722038225-line-12)">
</text><text class="terminal-722038225-r16" x="402.6" y="337.2" textLength="12.2" clip-path="url(#terminal-722038225-line-13)">█</text><text class="terminal-722038225-r16" x="1122.4" y="337.2" textLength="12.2" clip-path="url(#terminal-722038225-line-13)">█</text><text class="terminal-722038225-r4" x="1549.4" y="337.2" textLength="12.2" clip-path="url(#terminal-722038225-line-13)">
</text><text class="terminal-722038225-r16" x="402.6" y="361.6" textLength="12.2" clip-path="url(#terminal-722038225-line-14)">█</text><text class="terminal-722038225-r16" x="1122.4" y="361.6" textLength="12.2" clip-path="url(#terminal-722038225-line-14)">█</text><text class="terminal-722038225-r4" x="1549.4" y="361.6" textLength="12.2" clip-path="url(#terminal-722038225-line-14)">
</text><text class="terminal-722038225-r16" x="402.6" y="386" textLength="12.2" clip-path="url(#terminal-722038225-line-15)">█</text><text class="terminal-722038225-r16" x="1122.4" y="386" textLength="12.2" clip-path="url(#terminal-722038225-line-15)">█</text><text class="terminal-722038225-r4" x="1549.4" y="386" textLength="12.2" clip-path="url(#terminal-722038225-line-15)">
</text><text class="terminal-722038225-r16" x="402.6" y="410.4" textLength="12.2" clip-path="url(#terminal-722038225-line-16)">█</text><text class="terminal-722038225-r17" x="427" y="410.4" textLength="329.4" clip-path="url(#terminal-722038225-line-16)">▔▔▔▔▔▔▔▔▔▔▔▔▔▔▔▔▔▔▔▔▔▔▔▔▔▔▔</text><text class="terminal-722038225-r18" x="780.8" y="410.4" textLength="329.4" clip-path="url(#terminal-722038225-line-16)">▔▔▔▔▔▔▔▔▔▔▔▔▔▔▔▔▔▔▔▔▔▔▔▔▔▔▔</text><text class="terminal-722038225-r16" x="1122.4" y="410.4" textLength="12.2" clip-path="url(#terminal-722038225-line-16)">█</text><text class="terminal-722038225-r4" x="1549.4" y="410.4" textLength="12.2" clip-path="url(#terminal-722038225-line-16)">
</text><text class="terminal-722038225-r16" x="402.6" y="434.8" textLength="12.2" clip-path="url(#terminal-722038225-line-17)">█</text><text class="terminal-722038225-r19" x="561.2" y="434.8" textLength="48.8" clip-path="url(#terminal-722038225-line-17)">Quit</text><text class="terminal-722038225-r20" x="902.8" y="434.8" textLength="73.2" clip-path="url(#terminal-722038225-line-17)">Cancel</text><text class="terminal-722038225-r16" x="1122.4" y="434.8" textLength="12.2" clip-path="url(#terminal-722038225-line-17)">█</text><text class="terminal-722038225-r4" x="1549.4" y="434.8" textLength="12.2" clip-path="url(#terminal-722038225-line-17)">
</text><text class="terminal-722038225-r16" x="402.6" y="459.2" textLength="12.2" clip-path="url(#terminal-722038225-line-18)">█</text><text class="terminal-722038225-r21" x="427" y="459.2" textLength="329.4" clip-path="url(#terminal-722038225-line-18)">▁▁▁▁▁▁▁▁▁▁▁▁▁▁▁▁▁▁▁▁▁▁▁▁▁▁▁</text><text class="terminal-722038225-r22" x="780.8" y="459.2" textLength="329.4" clip-path="url(#terminal-722038225-line-18)">▁▁▁▁▁▁▁▁▁▁▁▁▁▁▁▁▁▁▁▁▁▁▁▁▁▁▁</text><text class="terminal-722038225-r16" x="1122.4" y="459.2" textLength="12.2" clip-path="url(#terminal-722038225-line-18)">█</text><text class="terminal-722038225-r4" x="1549.4" y="459.2" textLength="12.2" clip-path="url(#terminal-722038225-line-18)">
</text><text class="terminal-722038225-r16" x="402.6" y="483.6" textLength="12.2" clip-path="url(#terminal-722038225-line-19)">█</text><text class="terminal-722038225-r16" x="414.8" y="483.6" textLength="707.6" clip-path="url(#terminal-722038225-line-19)">▄▄▄▄▄▄▄▄▄▄▄▄▄▄▄▄▄▄▄▄▄▄▄▄▄▄▄▄▄▄▄▄▄▄▄▄▄▄▄▄▄▄▄▄▄▄▄▄▄▄▄▄▄▄▄▄▄▄</text><text class="terminal-722038225-r16" x="1122.4" y="483.6" textLength="12.2" clip-path="url(#terminal-722038225-line-19)">█</text><text class="terminal-722038225-r4" x="1549.4" y="483.6" textLength="12.2" clip-path="url(#terminal-722038225-line-19)">
</text><text class="terminal-722038225-r4" x="1549.4" y="508" textLength="12.2" clip-path="url(#terminal-722038225-line-20)">
</text><text class="terminal-722038225-r4" x="1549.4" y="532.4" textLength="12.2" clip-path="url(#terminal-722038225-line-21)">
</text><text class="terminal-722038225-r4" x="1549.4" y="556.8" textLength="12.2" clip-path="url(#terminal-722038225-line-22)">
</text><text class="terminal-722038225-r4" x="1549.4" y="581.2" textLength="12.2" clip-path="url(#terminal-722038225-line-23)">
</text><text class="terminal-722038225-r4" x="1549.4" y="605.6" textLength="12.2" clip-path="url(#terminal-722038225-line-24)">
</text><text class="terminal-722038225-r5" x="73.2" y="630" textLength="183" clip-path="url(#terminal-722038225-line-25)">Dark&#160;mode:&#160;True</text><text class="terminal-722038225-r4" x="1549.4" y="630" textLength="12.2" clip-path="url(#terminal-722038225-line-25)">
</text><text class="terminal-722038225-r14" x="1512.8" y="654.4" textLength="24.4" clip-path="url(#terminal-722038225-line-26)">▀▀</text><text class="terminal-722038225-r4" x="1549.4" y="654.4" textLength="12.2" clip-path="url(#terminal-722038225-line-26)">
</text><text class="terminal-722038225-r23" x="0" y="678.8" textLength="1549.4" clip-path="url(#terminal-722038225-line-27)">━━━━━━━━━━━━━━━━━━━━━━━━━━━━━━━━━━━━━━━━━━━━━━━━━━━━━━━━━━━━━━━━━━━━━━━━━━━━━━━━━━━━━━━━━━━━━━━━━━━━━━━━━━━━━━━━━━━━━━━━━━━━━━━</text><text class="terminal-722038225-r4" x="1549.4" y="678.8" textLength="12.2" clip-path="url(#terminal-722038225-line-27)">
</text><text class="terminal-722038225-r24" x="0" y="703.2" textLength="36.6" clip-path="url(#terminal-722038225-line-28)">&#160;D&#160;</text><text class="terminal-722038225-r25" x="36.6" y="703.2" textLength="207.4" clip-path="url(#terminal-722038225-line-28)">&#160;Toggle&#160;Darkness&#160;</text><text class="terminal-722038225-r24" x="244" y="703.2" textLength="36.6" clip-path="url(#terminal-722038225-line-28)">&#160;S&#160;</text><text class="terminal-722038225-r25" x="280.6" y="703.2" textLength="146.4" clip-path="url(#terminal-722038225-line-28)">&#160;Screenshot&#160;</text><text class="terminal-722038225-r24" x="427" y="703.2" textLength="36.6" clip-path="url(#terminal-722038225-line-28)">&#160;Q&#160;</text><text class="terminal-722038225-r25" x="463.6" y="703.2" textLength="73.2" clip-path="url(#terminal-722038225-line-28)">&#160;Quit&#160;</text>
    </g>
    </g>
</svg>
